<?xml version="1.0" encoding="UTF-8" standalone="no"?>
<!-- Created with Inkscape (http://www.inkscape.org/) -->

<svg
   width="512"
   height="512"
   viewBox="0 0 135.46666 135.46667"
   version="1.1"
   id="svg1"
   xmlns="http://www.w3.org/2000/svg"
   xmlns:svg="http://www.w3.org/2000/svg">
  <defs
     id="defs1">
    <rect
       x="136.78301"
       y="256"
       width="159.25909"
       height="60.59165"
       id="rect2" />
  </defs>
  <g
     id="layer1"
     style="display:inline">
    <path
       id="rect1"
       style="fill:#4b4b4b;fill-opacity:1;stroke-width:0.310963"
       d="M 7.4760295 28.569316 C 3.3343448 28.569316 0 31.90366 0 36.045345 L 0 99.421322 C -1.8799758e-15 103.56301 3.3343448 106.89735 7.4760295 106.89735 L 127.99064 106.89735 C 132.13232 106.89735 135.46667 103.56301 135.46667 99.421322 L 135.46667 36.045345 C 135.46667 31.90366 132.13232 28.569316 127.99064 28.569316 L 7.4760295 28.569316 z M 32.696712 49.167025 L 35.574056 49.167025 L 35.574056 85.679525 L 31.109212 85.679525 L 31.109212 57.228548 C 30.034344 58.253808 28.620474 59.27907 26.867611 60.304329 C 25.131284 61.329589 23.568586 62.098536 22.179525 62.611165 L 22.179525 58.29515 C 24.676528 57.121062 26.859345 55.698924 28.727962 54.028743 C 30.59658 52.358562 31.9195 50.737987 32.696712 49.167025 z M 59.857845 49.167025 C 62.71865 49.167025 65.058563 49.969045 66.877572 51.573079 C 68.713117 53.177114 69.812793 55.393004 70.176595 58.220736 L 65.736556 58.568001 C 65.339681 56.815138 64.777441 55.541829 64.049837 54.748079 C 62.842677 53.474774 61.354393 52.838118 59.584993 52.838118 C 58.16286 52.838118 56.914354 53.234994 55.839486 54.028743 C 54.433888 55.054002 53.325943 56.550555 52.515658 58.518392 C 51.705372 60.486229 51.283692 63.289164 51.250618 66.927181 C 52.325487 65.290073 53.640138 64.074641 55.194564 63.280892 C 56.748989 62.487143 58.377834 62.090267 60.081087 62.090267 C 63.057647 62.090267 65.58773 63.189944 67.671322 65.38929 C 69.77145 67.572101 70.821517 70.399841 70.821517 73.872493 C 70.821517 76.154523 70.325423 78.279461 69.333236 80.247298 C 68.357586 82.198598 67.009862 83.695151 65.290072 84.736947 C 63.570282 85.778742 61.618976 86.299642 59.436165 86.299642 C 55.715466 86.299642 52.68102 84.935381 50.332845 82.206868 C 47.98467 79.461819 46.810579 74.947357 46.810579 68.663509 C 46.810579 61.635521 48.108694 56.525746 50.704915 53.334212 C 52.970408 50.55609 56.02139 49.167025 59.857845 49.167025 z M 100.81038 49.167025 C 103.1751 49.167025 105.3331 49.80368 107.28441 51.076986 C 109.25224 52.350292 110.74053 54.169306 111.74925 56.534017 C 112.77451 58.882191 113.28714 62.288709 113.28714 66.753548 C 113.28714 71.400288 112.78278 75.104462 111.77406 77.866048 C 110.76534 80.611097 109.26051 82.702964 107.2596 84.141634 C 105.27523 85.580304 102.94358 86.299642 100.26468 86.299642 C 97.420413 86.299642 95.097036 85.514158 93.294564 83.943197 C 91.492092 82.355698 90.408951 80.13154 90.04515 77.270736 L 94.336361 76.873861 C 94.700162 78.891307 95.394695 80.354786 96.419954 81.26429 C 97.445213 82.173795 98.759863 82.628548 100.3639 82.628548 C 101.73643 82.628548 102.93532 82.314355 103.96058 81.68597 C 105.00237 81.057585 105.854 80.222493 106.51546 79.180697 C 107.17692 78.122364 107.7309 76.700226 108.17738 74.91429 C 108.62386 73.128355 108.8471 71.309341 108.8471 69.457259 C 108.8471 69.258822 108.83883 68.961165 108.8223 68.56429 C 107.92933 69.986424 106.70563 71.143979 105.1512 72.036947 C 103.61332 72.913378 101.94313 73.351595 100.14066 73.351595 C 97.131023 73.351595 94.584406 72.260187 92.500814 70.077376 C 90.417222 67.894566 89.375423 65.017216 89.375423 61.445345 C 89.375423 57.757719 90.458563 54.789419 92.624837 52.540462 C 94.807647 50.291506 97.53617 49.167025 100.81038 49.167025 z M 101.35609 52.862923 C 99.371711 52.862923 97.643651 53.673211 96.171908 55.293783 C 94.700164 56.914354 93.96429 59.014488 93.96429 61.594173 C 93.96429 63.909275 94.658824 65.794435 96.047884 67.249642 C 97.453482 68.688312 99.181547 69.40765 101.23206 69.40765 C 103.29912 69.40765 104.99411 68.688312 106.31702 67.249642 C 107.65648 65.794435 108.3262 63.785251 108.3262 61.222103 C 108.3262 58.658954 107.63994 56.624966 106.26742 55.12015 C 104.91143 53.615333 103.27431 52.862923 101.35609 52.862923 z M 77.742025 59.336947 L 82.826986 59.336947 L 82.826986 64.421908 L 77.742025 64.421908 L 77.742025 59.336947 z M 59.188118 66.034212 C 57.170673 66.034212 55.459145 66.761818 54.053548 68.217025 C 52.647951 69.655695 51.94515 71.549123 51.94515 73.897298 C 51.94515 75.435187 52.267612 76.906935 52.912533 78.312533 C 53.573991 79.71813 54.491765 80.793002 55.665853 81.537142 C 56.83994 82.264745 58.071909 82.628548 59.361751 82.628548 C 61.246905 82.628548 62.867481 81.867869 64.22347 80.346517 C 65.579458 78.825164 66.257454 76.758102 66.257454 74.145345 C 66.257454 71.631806 65.587727 69.655695 64.248275 68.217025 C 62.908823 66.761818 61.222101 66.034212 59.188118 66.034212 z M 77.742025 80.594564 L 82.826986 80.594564 L 82.826986 85.679525 L 77.742025 85.679525 L 77.742025 80.594564 z " />
  </g>
</svg>
