<?xml version="1.0" encoding="UTF-8" standalone="no"?>
<!-- Created with Inkscape (http://www.inkscape.org/) -->

<svg
   width="512"
   height="512"
   viewBox="0 0 135.46666 135.46667"
   version="1.1"
   id="svg1"
   sodipodi:docname="aspect_3_2.svg"
   inkscape:version="1.3.2 (091e20e, 2023-11-25, custom)"
   xmlns:inkscape="http://www.inkscape.org/namespaces/inkscape"
   xmlns:sodipodi="http://sodipodi.sourceforge.net/DTD/sodipodi-0.dtd"
   xmlns="http://www.w3.org/2000/svg"
   xmlns:svg="http://www.w3.org/2000/svg">
  <sodipodi:namedview
     id="namedview1"
     pagecolor="#505050"
     bordercolor="#ffffff"
     borderopacity="1"
     inkscape:showpageshadow="0"
     inkscape:pageopacity="0"
     inkscape:pagecheckerboard="1"
     inkscape:deskcolor="#505050"
     inkscape:zoom="1.7070312"
     inkscape:cx="255.70709"
     inkscape:cy="256"
     inkscape:window-width="1920"
     inkscape:window-height="1112"
     inkscape:window-x="-8"
     inkscape:window-y="-8"
     inkscape:window-maximized="1"
     inkscape:current-layer="layer1" />
  <defs
     id="defs1">
    <rect
       x="136.78301"
       y="256"
       width="159.25909"
       height="60.59165"
       id="rect2" />
  </defs>
  <g
     id="layer1">
    <path
       id="rect1"
       style="fill:#4b4b4b;stroke-width:0.310963;fill-opacity:1"
       d="M 7.4760294 28.569315 C 3.3343447 28.569315 0 31.90366 0 36.045345 L 0 99.42132 C -1.8799758e-15 103.56301 3.3343447 106.89735 7.4760294 106.89735 L 127.99064 106.89735 C 132.13232 106.89735 135.46666 103.56301 135.46666 99.42132 L 135.46666 36.045345 C 135.46666 31.90366 132.13232 28.569315 127.99064 28.569315 L 7.4760294 28.569315 z M 46.215266 49.154622 C 48.199639 49.154622 50.026922 49.584571 51.697102 50.444466 C 53.367283 51.287824 54.640593 52.445378 55.517024 53.917122 C 56.409992 55.388865 56.856477 56.951563 56.856477 58.605208 C 56.856477 60.17617 56.434797 61.606576 55.591438 62.896418 C 54.74808 64.186261 53.499575 65.211523 51.84593 65.9722 C 53.995668 66.468293 55.665853 67.501824 56.856477 69.072786 C 58.047101 70.627211 58.642415 72.578517 58.642415 74.926692 C 58.642415 78.101689 57.48486 80.797137 55.169758 83.01302 C 52.854657 85.212367 49.927698 86.312043 46.388899 86.312043 C 43.197366 86.312043 40.543259 85.361195 38.426595 83.459504 C 36.326467 81.557813 35.127571 79.093876 34.829915 76.067707 L 39.294759 75.472395 C 39.807388 78.00247 40.675554 79.829753 41.899251 80.954231 C 43.139484 82.062172 44.644305 82.616145 46.413704 82.616145 C 48.513832 82.616145 50.283237 81.888539 51.721907 80.433332 C 53.177114 78.978125 53.904719 77.175648 53.904719 75.025911 C 53.904719 72.975392 53.234991 71.28867 51.89554 69.965754 C 50.556088 68.626303 48.852829 67.956575 46.785774 67.956575 C 45.942416 67.956575 44.892348 68.12194 43.635579 68.452668 L 44.131673 64.533528 C 44.429329 64.566601 44.669108 64.583137 44.851009 64.583137 C 46.752699 64.583137 48.464226 64.087042 49.985579 63.094856 C 51.506931 62.10267 52.26761 60.573044 52.26761 58.505989 C 52.26761 56.868881 51.713638 55.512889 50.605696 54.43802 C 49.497754 53.363151 48.067348 52.825715 46.314485 52.825715 C 44.578159 52.825715 43.131216 53.37142 41.973665 54.462825 C 40.816114 55.55423 40.071972 57.191343 39.741243 59.374153 L 35.276399 58.580403 C 35.822102 55.587307 37.062339 53.272198 38.997102 51.635091 C 40.931866 49.981446 43.337926 49.154622 46.215266 49.154622 z M 89.251399 49.154622 C 92.740588 49.154622 95.502182 50.122007 97.536164 52.05677 C 99.570146 53.991534 100.58714 56.389325 100.58714 59.250129 C 100.58714 60.705336 100.28948 62.135743 99.694172 63.54134 C 99.09886 64.946938 98.106671 66.426954 96.717609 67.981379 C 95.345085 69.535805 93.054781 71.669012 89.846711 74.380989 C 87.167808 76.629945 85.448013 78.15957 84.687336 78.969856 C 83.92666 79.763605 83.298273 80.565625 82.80218 81.37591 L 100.63675 81.37591 L 100.63675 85.667121 L 76.601008 85.667121 C 76.567935 84.592253 76.741568 83.558722 77.121907 82.566535 C 77.733755 80.929428 78.709408 79.31712 80.04886 77.729621 C 81.404848 76.142123 83.356154 74.306573 85.902766 72.222981 C 89.854975 68.981838 92.525619 66.418682 93.91468 64.533528 C 95.303741 62.631837 95.998274 60.837628 95.998274 59.150911 C 95.998274 57.381511 95.361619 55.893227 94.088313 54.686067 C 92.831543 53.46237 91.186162 52.85052 89.15218 52.85052 C 87.002442 52.85052 85.282647 53.495443 83.992805 54.785286 C 82.702963 56.075128 82.049771 57.861069 82.033235 60.143098 L 77.444368 59.671809 C 77.75856 56.248766 78.940919 53.644268 80.991438 51.858333 C 83.041957 50.055861 85.795282 49.154622 89.251399 49.154622 z M 65.538118 59.324544 L 70.623079 59.324544 L 70.623079 64.409504 L 65.538118 64.409504 L 65.538118 59.324544 z M 65.538118 80.58216 L 70.623079 80.58216 L 70.623079 85.667121 L 65.538118 85.667121 L 65.538118 80.58216 z " />
  </g>
</svg>
