<?xml version="1.0" encoding="UTF-8" standalone="no"?>
<!-- Created with Inkscape (http://www.inkscape.org/) -->

<svg
   width="512"
   height="512"
   viewBox="0 0 135.46666 135.46667"
   version="1.1"
   id="svg1"
   xmlns="http://www.w3.org/2000/svg"
   xmlns:svg="http://www.w3.org/2000/svg">
  <defs
     id="defs1">
    <rect
       x="136.78301"
       y="256"
       width="159.25909"
       height="60.59165"
       id="rect2" />
  </defs>
  <g
     id="layer1">
    <path
       id="rect1"
       style="fill:#4b4b4b;stroke-width:0.310963;fill-opacity:1"
       d="M 7.4760295 28.569316 C 3.3343448 28.569316 0 31.90366 0 36.045345 L 0 99.421322 C -1.8799758e-15 103.56301 3.3343448 106.89735 7.4760295 106.89735 L 127.99064 106.89735 C 132.13232 106.89735 135.46667 103.56301 135.46667 99.421322 L 135.46667 36.045345 C 135.46667 31.90366 132.13232 28.569316 127.99064 28.569316 L 7.4760295 28.569316 z M 89.139779 49.154622 C 91.124152 49.154622 92.951434 49.584571 94.621615 50.444466 C 96.291795 51.287825 97.565105 52.445379 98.441536 53.917122 C 99.334504 55.388866 99.78099 56.951564 99.78099 58.605208 C 99.78099 60.17617 99.359309 61.606577 98.515951 62.896419 C 97.672592 64.186262 96.424087 65.211524 94.770443 65.972201 C 96.92018 66.468294 98.590366 67.501825 99.78099 69.072786 C 100.97161 70.627212 101.56693 72.578518 101.56693 74.926693 C 101.56693 78.101689 100.40937 80.797138 98.094271 83.013021 C 95.779169 85.212368 92.85221 86.312044 89.313411 86.312044 C 86.121878 86.312044 83.467771 85.361196 81.351107 83.459505 C 79.250979 81.557814 78.052083 79.093877 77.754427 76.067708 L 82.219271 75.472396 C 82.731901 78.002471 83.600066 79.829754 84.823763 80.954232 C 86.063996 82.062173 87.568817 82.616146 89.338216 82.616146 C 91.438344 82.616146 93.207749 81.88854 94.646419 80.433333 C 96.101626 78.978126 96.829232 77.175649 96.829232 75.025911 C 96.829232 72.975393 96.159504 71.288671 94.820052 69.965755 C 93.4806 68.626303 91.777342 67.956576 89.710286 67.956576 C 88.866928 67.956576 87.816861 68.12194 86.560091 68.452669 L 87.056185 64.533529 C 87.353841 64.566602 87.59362 64.583138 87.775521 64.583138 C 89.677212 64.583138 91.388739 64.087043 92.910091 63.094857 C 94.431444 62.10267 95.192122 60.573045 95.192122 58.50599 C 95.192122 56.868882 94.63815 55.51289 93.530208 54.438021 C 92.422267 53.363152 90.99186 52.825716 89.238997 52.825716 C 87.502671 52.825716 86.055728 53.37142 84.898177 54.462826 C 83.740626 55.554231 82.996484 57.191343 82.665755 59.374154 L 78.200911 58.580404 C 78.746614 55.587308 79.986851 53.272199 81.921615 51.635091 C 83.856378 49.981447 86.262438 49.154622 89.139779 49.154622 z M 50.494076 49.303451 L 54.140365 49.303451 L 54.140365 72.867904 L 59.051693 72.867904 L 59.051693 76.960677 L 54.140365 76.960677 L 54.140365 85.667122 L 49.675521 85.667122 L 49.675521 76.960677 L 33.89974 76.960677 L 33.89974 72.867904 L 50.494076 49.303451 z M 49.675521 56.472005 L 38.290169 72.867904 L 49.675521 72.867904 L 49.675521 56.472005 z M 66.096224 59.324544 L 71.181185 59.324544 L 71.181185 64.409505 L 66.096224 64.409505 L 66.096224 59.324544 z M 66.096224 80.582161 L 71.181185 80.582161 L 71.181185 85.667122 L 66.096224 85.667122 L 66.096224 80.582161 z " />
  </g>
</svg>
